ffmpeg version N-68911-ge70e9b6554-static https://johnvansickle.com/ffmpeg/  Copyright (c) 2000-2024 the FFmpeg developers
  built with gcc 8 (Debian 8.3.0-6)
  configuration: --enable-gpl --enable-version3 --enable-static --disable-debug --disable-ffplay --disable-indev=sndio --disable-outdev=sndio --cc=gcc --enable-fontconfig --enable-frei0r --enable-gnutls --enable-gmp --enable-libgme --enable-gray --enable-libaom --enable-libfribidi --enable-libass --enable-libvmaf --enable-libfreetype --enable-libmp3lame --enable-libopencore-amrnb --enable-libopencore-amrwb --enable-libopenjpeg --enable-librubberband --enable-libsoxr --enable-libspeex --enable-libsrt --enable-libvorbis --enable-libopus --enable-libtheora --enable-libvidstab --enable-libvo-amrwbenc --enable-libvpx --enable-libwebp --enable-libx264 --enable-libx265 --enable-libxml2 --enable-libdav1d --enable-libxvid --enable-libzvbi --enable-libzimg
  libavutil      58. 39.100 / 58. 39.100
  libavcodec     60. 40.100 / 60. 40.100
  libavformat    60. 22.101 / 60. 22.101
  libavdevice    60.  4.100 / 60.  4.100
  libavfilter     9. 17.100 /  9. 17.100
  libswscale      7.  6.100 /  7.  6.100
  libswresample   4. 13.100 /  4. 13.100
  libpostproc    57.  4.100 / 57.  4.100
[rawvideo @ 0x7a236c0] Estimating duration from bitrate, this may be inaccurate
Input #0, rawvideo, from 'temp_vmaf_test.yuv':
  Duration: 00:00:19.52, start: 0.000000, bitrate: 622080 kb/s
  Stream #0:0: Video: rawvideo (I420 / 0x30323449), yuv420p, 1920x1080, 622080 kb/s, 25 tbr, 25 tbn
[rawvideo @ 0x7a1d300] Estimating duration from bitrate, this may be inaccurate
Input #1, rawvideo, from 'temp_vmaf.yuv':
  Duration: 00:00:19.52, start: 0.000000, bitrate: 622080 kb/s
  Stream #1:0: Video: rawvideo (I420 / 0x30323449), yuv420p, 1920x1080, 622080 kb/s, 25 tbr, 25 tbn
Stream mapping:
  Stream #0:0 (rawvideo) -> libvmaf
  Stream #1:0 (rawvideo) -> libvmaf
  libvmaf:default -> Stream #0:0 (wrapped_avframe)
Press [q] to stop, [?] for help
Output #0, null, to 'pipe:':
  Metadata:
    encoder         : Lavf60.22.101
  Stream #0:0: Video: wrapped_avframe, yuv420p(progressive), 1920x1080, q=2-31, 200 kb/s, 25 fps, 25 tbn
      Metadata:
        encoder         : Lavc60.40.100 wrapped_avframe
frame=    3 fps=0.0 q=-0.0 size=N/A time=00:00:00.12 bitrate=N/A speed=0.24x    frame=    7 fps=7.0 q=-0.0 size=N/A time=00:00:00.28 bitrate=N/A speed=0.28x    frame=   11 fps=7.3 q=-0.0 size=N/A time=00:00:00.44 bitrate=N/A speed=0.293x    frame=   15 fps=7.5 q=-0.0 size=N/A time=00:00:00.60 bitrate=N/A speed= 0.3x    frame=   19 fps=7.6 q=-0.0 size=N/A time=00:00:00.76 bitrate=N/A speed=0.304x    frame=   23 fps=7.7 q=-0.0 size=N/A time=00:00:00.92 bitrate=N/A speed=0.307x    frame=   27 fps=7.7 q=-0.0 size=N/A time=00:00:01.08 bitrate=N/A speed=0.309x    frame=   31 fps=7.7 q=-0.0 size=N/A time=00:00:01.24 bitrate=N/A speed=0.31x    frame=   35 fps=7.8 q=-0.0 size=N/A time=00:00:01.40 bitrate=N/A speed=0.311x    frame=   39 fps=7.8 q=-0.0 size=N/A time=00:00:01.56 bitrate=N/A speed=0.312x    frame=   43 fps=7.8 q=-0.0 size=N/A time=00:00:01.72 bitrate=N/A speed=0.313x    frame=   47 fps=7.8 q=-0.0 size=N/A time=00:00:01.88 bitrate=N/A speed=0.313x    frame=   51 fps=7.8 q=-0.0 size=N/A time=00:00:02.04 bitrate=N/A speed=0.314x    frame=   55 fps=7.9 q=-0.0 size=N/A time=00:00:02.20 bitrate=N/A speed=0.314x    frame=   59 fps=7.9 q=-0.0 size=N/A time=00:00:02.36 bitrate=N/A speed=0.315x    frame=   62 fps=7.7 q=-0.0 size=N/A time=00:00:02.48 bitrate=N/A speed=0.31x    frame=   66 fps=7.8 q=-0.0 size=N/A time=00:00:02.64 bitrate=N/A speed=0.311x    frame=   70 fps=7.8 q=-0.0 size=N/A time=00:00:02.80 bitrate=N/A speed=0.311x    frame=   74 fps=7.8 q=-0.0 size=N/A time=00:00:02.96 bitrate=N/A speed=0.312x    frame=   78 fps=7.8 q=-0.0 size=N/A time=00:00:03.12 bitrate=N/A speed=0.312x    frame=   82 fps=7.8 q=-0.0 size=N/A time=00:00:03.28 bitrate=N/A speed=0.312x    frame=   86 fps=7.8 q=-0.0 size=N/A time=00:00:03.44 bitrate=N/A speed=0.313x    frame=   90 fps=7.8 q=-0.0 size=N/A time=00:00:03.60 bitrate=N/A speed=0.313x    frame=   94 fps=7.8 q=-0.0 size=N/A time=00:00:03.76 bitrate=N/A speed=0.313x    frame=   98 fps=7.8 q=-0.0 size=N/A time=00:00:03.92 bitrate=N/A speed=0.314x    frame=  102 fps=7.8 q=-0.0 size=N/A time=00:00:04.08 bitrate=N/A speed=0.314x    frame=  106 fps=7.9 q=-0.0 size=N/A time=00:00:04.24 bitrate=N/A speed=0.314x    frame=  110 fps=7.9 q=-0.0 size=N/A time=00:00:04.40 bitrate=N/A speed=0.314x    frame=  114 fps=7.9 q=-0.0 size=N/A time=00:00:04.56 bitrate=N/A speed=0.314x    frame=  118 fps=7.9 q=-0.0 size=N/A time=00:00:04.72 bitrate=N/A speed=0.315x    frame=  122 fps=7.9 q=-0.0 size=N/A time=00:00:04.88 bitrate=N/A speed=0.315x    frame=  126 fps=7.9 q=-0.0 size=N/A time=00:00:05.04 bitrate=N/A speed=0.315x    frame=  130 fps=7.9 q=-0.0 size=N/A time=00:00:05.20 bitrate=N/A speed=0.315x    frame=  134 fps=7.9 q=-0.0 size=N/A time=00:00:05.36 bitrate=N/A speed=0.315x    frame=  138 fps=7.9 q=-0.0 size=N/A time=00:00:05.52 bitrate=N/A speed=0.315x    frame=  142 fps=7.9 q=-0.0 size=N/A time=00:00:05.68 bitrate=N/A speed=0.316x    frame=  146 fps=7.9 q=-0.0 size=N/A time=00:00:05.84 bitrate=N/A speed=0.316x    frame=  150 fps=7.9 q=-0.0 size=N/A time=00:00:06.00 bitrate=N/A speed=0.316x    frame=  154 fps=7.9 q=-0.0 size=N/A time=00:00:06.16 bitrate=N/A speed=0.316x    frame=  158 fps=7.9 q=-0.0 size=N/A time=00:00:06.32 bitrate=N/A speed=0.316x    frame=  162 fps=7.9 q=-0.0 size=N/A time=00:00:06.48 bitrate=N/A speed=0.316x    frame=  166 fps=7.9 q=-0.0 size=N/A time=00:00:06.64 bitrate=N/A speed=0.316x    frame=  170 fps=7.9 q=-0.0 size=N/A time=00:00:06.80 bitrate=N/A speed=0.316x    frame=  174 fps=7.9 q=-0.0 size=N/A time=00:00:06.96 bitrate=N/A speed=0.316x    frame=  179 fps=8.0 q=-0.0 size=N/A time=00:00:07.16 bitrate=N/A speed=0.318x    frame=  183 fps=8.0 q=-0.0 size=N/A time=00:00:07.32 bitrate=N/A speed=0.318x    frame=  186 fps=7.9 q=-0.0 size=N/A time=00:00:07.44 bitrate=N/A speed=0.317x    frame=  190 fps=7.9 q=-0.0 size=N/A time=00:00:07.60 bitrate=N/A speed=0.317x    frame=  194 fps=7.9 q=-0.0 size=N/A time=00:00:07.76 bitrate=N/A speed=0.317x    frame=  198 fps=7.9 q=-0.0 size=N/A time=00:00:07.92 bitrate=N/A speed=0.317x    frame=  202 fps=7.9 q=-0.0 size=N/A time=00:00:08.08 bitrate=N/A speed=0.317x    frame=  206 fps=7.9 q=-0.0 size=N/A time=00:00:08.24 bitrate=N/A speed=0.317x    frame=  211 fps=8.0 q=-0.0 size=N/A time=00:00:08.44 bitrate=N/A speed=0.318x    frame=  215 fps=8.0 q=-0.0 size=N/A time=00:00:08.60 bitrate=N/A speed=0.318x    frame=  219 fps=8.0 q=-0.0 size=N/A time=00:00:08.76 bitrate=N/A speed=0.318x    frame=  223 fps=8.0 q=-0.0 size=N/A time=00:00:08.92 bitrate=N/A speed=0.319x    frame=  227 fps=8.0 q=-0.0 size=N/A time=00:00:09.08 bitrate=N/A speed=0.319x    frame=  231 fps=8.0 q=-0.0 size=N/A time=00:00:09.24 bitrate=N/A speed=0.319x    frame=  235 fps=8.0 q=-0.0 size=N/A time=00:00:09.40 bitrate=N/A speed=0.319x    frame=  239 fps=8.0 q=-0.0 size=N/A time=00:00:09.56 bitrate=N/A speed=0.319x    frame=  243 fps=8.0 q=-0.0 size=N/A time=00:00:09.72 bitrate=N/A speed=0.319x    frame=  247 fps=8.0 q=-0.0 size=N/A time=00:00:09.88 bitrate=N/A speed=0.319x    frame=  251 fps=8.0 q=-0.0 size=N/A time=00:00:10.04 bitrate=N/A speed=0.319x    frame=  255 fps=8.0 q=-0.0 size=N/A time=00:00:10.20 bitrate=N/A speed=0.319x    frame=  259 fps=8.0 q=-0.0 size=N/A time=00:00:10.36 bitrate=N/A speed=0.319x    frame=  263 fps=8.0 q=-0.0 size=N/A time=00:00:10.52 bitrate=N/A speed=0.319x    frame=  267 fps=8.0 q=-0.0 size=N/A time=00:00:10.68 bitrate=N/A speed=0.319x    frame=  271 fps=8.0 q=-0.0 size=N/A time=00:00:10.84 bitrate=N/A speed=0.319x    frame=  275 fps=8.0 q=-0.0 size=N/A time=00:00:11.00 bitrate=N/A speed=0.319x    frame=  279 fps=8.0 q=-0.0 size=N/A time=00:00:11.16 bitrate=N/A speed=0.319x    frame=  283 fps=8.0 q=-0.0 size=N/A time=00:00:11.32 bitrate=N/A speed=0.319x    frame=  287 fps=8.0 q=-0.0 size=N/A time=00:00:11.48 bitrate=N/A speed=0.319x    frame=  291 fps=8.0 q=-0.0 size=N/A time=00:00:11.64 bitrate=N/A speed=0.319x    frame=  295 fps=8.0 q=-0.0 size=N/A time=00:00:11.80 bitrate=N/A speed=0.319x    frame=  299 fps=8.0 q=-0.0 size=N/A time=00:00:11.96 bitrate=N/A speed=0.319x    frame=  303 fps=8.0 q=-0.0 size=N/A time=00:00:12.12 bitrate=N/A speed=0.319x    frame=  307 fps=8.0 q=-0.0 size=N/A time=00:00:12.28 bitrate=N/A speed=0.319x    frame=  311 fps=8.0 q=-0.0 size=N/A time=00:00:12.44 bitrate=N/A speed=0.319x    frame=  315 fps=8.0 q=-0.0 size=N/A time=00:00:12.60 bitrate=N/A speed=0.319x    frame=  319 fps=8.0 q=-0.0 size=N/A time=00:00:12.76 bitrate=N/A speed=0.319x    frame=  323 fps=8.0 q=-0.0 size=N/A time=00:00:12.92 bitrate=N/A speed=0.319x    frame=  327 fps=8.0 q=-0.0 size=N/A time=00:00:13.08 bitrate=N/A speed=0.319x    frame=  331 fps=8.0 q=-0.0 size=N/A time=00:00:13.24 bitrate=N/A speed=0.319x    frame=  335 fps=8.0 q=-0.0 size=N/A time=00:00:13.40 bitrate=N/A speed=0.319x    frame=  339 fps=8.0 q=-0.0 size=N/A time=00:00:13.56 bitrate=N/A speed=0.319x    frame=  343 fps=8.0 q=-0.0 size=N/A time=00:00:13.72 bitrate=N/A speed=0.319x    frame=  347 fps=8.0 q=-0.0 size=N/A time=00:00:13.88 bitrate=N/A speed=0.319x    frame=  351 fps=8.0 q=-0.0 size=N/A time=00:00:14.04 bitrate=N/A speed=0.319x    frame=  355 fps=8.0 q=-0.0 size=N/A time=00:00:14.20 bitrate=N/A speed=0.319x    frame=  359 fps=8.0 q=-0.0 size=N/A time=00:00:14.36 bitrate=N/A speed=0.319x    frame=  363 fps=8.0 q=-0.0 size=N/A time=00:00:14.52 bitrate=N/A speed=0.319x    frame=  367 fps=8.0 q=-0.0 size=N/A time=00:00:14.68 bitrate=N/A speed=0.319x    frame=  371 fps=8.0 q=-0.0 size=N/A time=00:00:14.84 bitrate=N/A speed=0.319x    frame=  375 fps=8.0 q=-0.0 size=N/A time=00:00:15.00 bitrate=N/A speed=0.319x    frame=  379 fps=8.0 q=-0.0 size=N/A time=00:00:15.16 bitrate=N/A speed=0.319x    frame=  383 fps=8.0 q=-0.0 size=N/A time=00:00:15.32 bitrate=N/A speed=0.319x    frame=  387 fps=8.0 q=-0.0 size=N/A time=00:00:15.48 bitrate=N/A speed=0.319x    frame=  391 fps=8.0 q=-0.0 size=N/A time=00:00:15.64 bitrate=N/A speed=0.319x    frame=  395 fps=8.0 q=-0.0 size=N/A time=00:00:15.80 bitrate=N/A speed=0.319x    frame=  399 fps=8.0 q=-0.0 size=N/A time=00:00:15.96 bitrate=N/A speed=0.319x    frame=  403 fps=8.0 q=-0.0 size=N/A time=00:00:16.12 bitrate=N/A speed=0.319x    frame=  407 fps=8.0 q=-0.0 size=N/A time=00:00:16.28 bitrate=N/A speed=0.319x    frame=  411 fps=8.0 q=-0.0 size=N/A time=00:00:16.44 bitrate=N/A speed=0.319x    frame=  415 fps=8.0 q=-0.0 size=N/A time=00:00:16.60 bitrate=N/A speed=0.319x    frame=  419 fps=8.0 q=-0.0 size=N/A time=00:00:16.76 bitrate=N/A speed=0.319x    frame=  424 fps=8.0 q=-0.0 size=N/A time=00:00:16.96 bitrate=N/A speed=0.32x    frame=  428 fps=8.0 q=-0.0 size=N/A time=00:00:17.12 bitrate=N/A speed=0.32x    frame=  432 fps=8.0 q=-0.0 size=N/A time=00:00:17.28 bitrate=N/A speed=0.32x    frame=  436 fps=8.0 q=-0.0 size=N/A time=00:00:17.44 bitrate=N/A speed=0.32x    frame=  440 fps=8.0 q=-0.0 size=N/A time=00:00:17.60 bitrate=N/A speed=0.32x    frame=  444 fps=8.0 q=-0.0 size=N/A time=00:00:17.76 bitrate=N/A speed=0.32x    frame=  448 fps=8.0 q=-0.0 size=N/A time=00:00:17.92 bitrate=N/A speed=0.32x    frame=  452 fps=8.0 q=-0.0 size=N/A time=00:00:18.08 bitrate=N/A speed=0.32x    frame=  456 fps=8.0 q=-0.0 size=N/A time=00:00:18.24 bitrate=N/A speed=0.32x    frame=  460 fps=8.0 q=-0.0 size=N/A time=00:00:18.40 bitrate=N/A speed=0.32x    frame=  464 fps=8.0 q=-0.0 size=N/A time=00:00:18.56 bitrate=N/A speed=0.32x    frame=  468 fps=8.0 q=-0.0 size=N/A time=00:00:18.72 bitrate=N/A speed=0.32x    frame=  472 fps=8.0 q=-0.0 size=N/A time=00:00:18.88 bitrate=N/A speed=0.32x    frame=  476 fps=8.0 q=-0.0 size=N/A time=00:00:19.04 bitrate=N/A speed=0.32x    frame=  480 fps=8.0 q=-0.0 size=N/A time=00:00:19.20 bitrate=N/A speed=0.32x    frame=  484 fps=8.0 q=-0.0 size=N/A time=00:00:19.36 bitrate=N/A speed=0.32x    [Parsed_libvmaf_0 @ 0x7f6b9c0031c0] VMAF score: 99.367512
[out#0/null @ 0x7a36240] video:229KiB audio:0KiB subtitle:0KiB other streams:0KiB global headers:0KiB muxing overhead: unknown
frame=  488 fps=8.0 q=-0.0 Lsize=N/A time=00:00:19.52 bitrate=N/A speed=0.32x    
